<svg width="147" height="168" viewBox="0 0 147 168" fill="none" xmlns="http://www.w3.org/2000/svg">
<g clip-path="url(#clip0_357_483)">
<path d="M144.558 124.128C138.277 137.679 128.119 149.064 115.368 156.842C102.617 164.62 87.8463 168.442 72.923 167.825C57.9998 167.209 43.5946 162.181 31.529 153.377C19.4634 144.573 10.2794 132.389 5.13831 118.366C-0.0027702 104.343 -0.870014 89.1099 2.64625 74.5937C6.16252 60.0775 13.9044 46.93 24.8928 36.8138C35.8812 26.6976 49.6227 20.067 64.3795 17.7605C79.1363 15.454 94.2457 17.5752 107.797 23.8559L94.6096 52.309C86.6858 48.6366 77.851 47.3963 69.2224 48.7449C60.5937 50.0936 52.5587 53.9707 46.1335 59.8859C39.7083 65.8011 35.1815 73.4887 33.1254 81.9767C31.0694 90.4646 31.5765 99.3717 34.5826 107.571C37.5887 115.771 42.9588 122.895 50.0139 128.043C57.0689 133.191 65.492 136.131 74.218 136.492C82.944 136.852 91.5809 134.617 99.0367 130.069C106.492 125.521 112.432 118.864 116.105 110.941L144.558 124.128Z" fill="url(#paint0_linear_357_483)"/>
<path d="M145.371 57.2149L81.4287 71.9253L113.287 -0.0179885L145.371 57.2149Z" fill="#AD6DFF"/>
</g>
<defs>
<linearGradient id="paint0_linear_357_483" x1="96.0971" y1="13.3843" x2="36.6853" y2="154.138" gradientUnits="userSpaceOnUse">
<stop offset="0.334722" stop-color="#AD6DFF"/>
<stop offset="1" stop-color="#8734DB"/>
</linearGradient>
<clipPath id="clip0_357_483">
<rect width="147" height="168" fill="white"/>
</clipPath>
</defs>
</svg>
